<svg width="306" height="40" viewBox="0 0 306 40" fill="none" xmlns="http://www.w3.org/2000/svg">
<path d="M35.954 13.5734V8.62593C35.954 7.52268 35.3107 6.51946 34.3075 6.05931L21.6545 0.257234C21.2801 0.0857449 20.8799 0 20.477 0C20.0739 0 19.6738 0.0857449 19.2994 0.257234L6.64631 6.06216C5.64309 6.52232 5 7.52553 5 8.62878V23.9257C5 27.164 6.56913 30.5794 9.41585 33.5462C12.0454 36.2844 15.6524 38.5251 19.5709 39.8514C19.8653 39.9514 20.1711 40 20.477 40C20.7827 40 21.0885 39.9514 21.383 39.8514C25.3015 38.5251 28.9085 36.2872 31.538 33.5462C34.3847 30.5823 35.954 27.164 35.954 23.9257V18.0264C35.954 17.9892 35.954 17.9549 35.954 17.9178V13.6849C35.954 13.6477 35.954 13.6106 35.954 13.5763V13.5734Z" fill="url(#paint0_linear_2035_222940)"/>
<path d="M33.1297 13.6822V8.62607L20.4767 2.82401V13.7822H31.6978L31.1175 17.152H20.4767V37.1762C27.6734 34.741 33.1297 29.1333 33.1297 23.9258V17.918V13.685V13.6822ZM24.4295 32.909C23.7806 33.3006 23.0947 33.6635 22.3802 33.9923L24.8181 19.7386H26.6845L24.4295 32.909ZM28.9997 29.1391C28.3537 29.9252 27.5991 30.6739 26.7532 31.3684L28.7424 19.7386H30.6088L28.9997 29.1391Z" fill="#D0CEEA"/>
<path d="M20.4767 2.82401L7.82364 8.62607V23.923C7.82364 29.1305 13.2799 34.7382 20.4767 37.1733V17.152H9.83864L9.25844 13.7822H20.4795V2.82401H20.4767ZM16.1352 19.7414L18.5818 34.0437C17.8672 33.7208 17.1813 33.3635 16.5325 32.9777L14.2659 19.7414H16.1323H16.1352ZM12.2109 19.7414L14.2174 31.4656C13.377 30.7882 12.6282 30.0594 11.9794 29.2934L10.3445 19.7386H12.2109V19.7414Z" fill="white"/>
<path fill-rule="evenodd" clip-rule="evenodd" d="M51.1462 32.1403V7.85974H64.4895C71.5044 7.85974 73.9462 10.818 73.9462 16.5612V17.018C73.9462 22.5881 71.5044 25.5821 64.4895 25.5821H55.9253V32.1403H51.1462ZM64.1104 21.0418C67.6537 21.0418 69.1671 20.2866 69.1671 16.9851V16.5612C69.1671 13.0866 67.7224 12.4359 64.1104 12.4359H55.9253V21.0448H64.1104V21.0418Z" fill="#15161E"/>
<path fill-rule="evenodd" clip-rule="evenodd" d="M106.824 23.7821V16.2508C106.824 11.0926 109.266 7.85974 114.973 7.85974H123.812C129.519 7.85974 131.961 11.0926 131.961 16.2508V23.7821C131.961 28.9075 129.519 32.1374 123.812 32.1374H114.973C109.266 32.1374 106.824 28.9045 106.824 23.7821ZM123.812 27.5642C126.116 27.5642 127.182 26.9105 127.182 23.9523V16.0777C127.182 13.0866 126.218 12.4329 123.812 12.4329H114.973C112.6 12.4329 111.603 13.0866 111.603 16.0777V23.9523C111.603 26.9105 112.669 27.5642 114.973 27.5642H123.812Z" fill="#15161E"/>
<path d="M143.528 12.4687V32.1403H148.31V12.4687H156.597V7.85974H135.242V12.4687H143.528Z" fill="#15161E"/>
<path d="M160.896 32.1374V7.85974H181.042L180.254 12.4329H165.642V17.7284H178.839V21.9582H165.642V27.5642H180.254L181.042 32.1374H160.896Z" fill="#15161E"/>
<path d="M220.307 12.4687V32.1403H225.09V12.4687H233.376V7.85974H212.021V12.4687H220.307Z" fill="#15161E"/>
<path d="M293.94 12.4687V7.85974H276.018V12.4687H282.588V27.5314H276.018V32.1403H293.94V27.5314H287.37V12.4687H293.94Z" fill="#15161E"/>
<path fill-rule="evenodd" clip-rule="evenodd" d="M255.579 7.85974H260.621L272.296 32.1374H266.97L265.066 27.9433H251.155L249.2 32.1374H243.869L255.579 7.85974ZM258.137 12.8478L252.943 24.0239H263.263L258.137 12.8478Z" fill="#15161E"/>
<path fill-rule="evenodd" clip-rule="evenodd" d="M102.146 16.8478V16.6299C102.146 10.818 99.4627 7.85974 92.4149 7.85974H79.0716V32.1374H83.8507V25.4776H92.3104L96.4149 32.1374H101.946L97.1283 24.9941C100.809 23.8926 102.149 21.0388 102.149 16.8448L102.146 16.8478ZM92.0358 21.0418H83.8507V12.4329H92.0358C95.6477 12.4329 97.0895 13.0866 97.0895 16.5582V16.9821C97.0895 20.2836 95.5761 21.0388 92.0358 21.0388V21.0418Z" fill="#15161E"/>
<path d="M204.006 23.9553V22.7463H208.785V23.7821C208.785 28.9045 206.343 32.1374 200.636 32.1374H192.967C187.26 32.1374 184.818 28.9075 184.818 23.7821V16.2508C184.818 11.0926 187.26 7.85974 192.967 7.85974H200.636C206.343 7.85974 208.785 11.0926 208.785 16.2508V16.9165H204.006V16.0806C204.006 13.0896 203.042 12.4359 200.636 12.4359H192.967C190.594 12.4359 189.597 13.0896 189.597 16.0806V23.9553C189.597 26.9135 190.663 27.5672 192.967 27.5672H200.636C202.94 27.5672 204.006 26.9135 204.006 23.9553Z" fill="#15161E"/>
<defs>
<linearGradient id="paint0_linear_2035_222940" x1="5.00286" y1="19.9986" x2="35.9568" y2="19.9986" gradientUnits="userSpaceOnUse">
<stop stop-color="#602FCD"/>
<stop offset="1" stop-color="#6F719C"/>
</linearGradient>
</defs>
</svg>
