<svg width="801" height="536" viewBox="0 0 801 536" fill="none" xmlns="http://www.w3.org/2000/svg">
<g opacity="0.8" clip-path="url(#clip0_16389_35435)">
<rect width="481.698" height="481.698" transform="matrix(0.83205 0.5547 -0.830139 0.557556 399.875 0)" fill="#F7F8FF"/>
<g opacity="0.2">
<path d="M453.843 36.0673C453.843 35.9536 453.705 35.8617 453.535 35.862L450.766 35.8667C450.596 35.867 450.458 35.9594 450.458 36.0732C450.458 36.1869 450.596 36.2788 450.766 36.2785L452.793 36.275L53.9656 304.144L53.9633 302.788C53.9631 302.674 53.8252 302.582 53.6552 302.583C53.4853 302.583 53.3477 302.675 53.3479 302.789L53.3511 304.642C53.3513 304.756 53.4892 304.848 53.6591 304.847L56.4284 304.843C56.5983 304.842 56.7359 304.75 56.7357 304.636C56.7355 304.523 56.5976 304.431 56.4277 304.431L54.4012 304.434L453.228 36.5655L453.231 37.9215C453.231 38.0352 453.369 38.1271 453.539 38.1268C453.709 38.1265 453.846 38.0341 453.846 37.9204L453.843 36.0673Z" fill="url(#paint0_linear_16389_35435)"/>
<path d="M471.269 47.6846C471.269 47.5709 471.131 47.479 470.961 47.4793L468.191 47.484C468.022 47.4843 467.884 47.5767 467.884 47.6905C467.884 47.8042 468.022 47.8961 468.192 47.8958L470.219 47.8923L71.3916 315.761L71.3892 314.405C71.389 314.292 71.2511 314.2 71.0812 314.2C70.9112 314.2 70.7736 314.293 70.7738 314.406L70.777 316.259C70.7772 316.373 70.9151 316.465 71.0851 316.465L73.8543 316.46C74.0243 316.46 74.1619 316.367 74.1617 316.254C74.1615 316.14 74.0236 316.048 73.8536 316.048L71.8272 316.052L470.654 48.1828L470.657 49.5388C470.657 49.6525 470.795 49.7444 470.965 49.7441C471.135 49.7438 471.272 49.6514 471.272 49.5377L471.269 47.6846Z" fill="url(#paint1_linear_16389_35435)"/>
<path d="M488.387 59.0966C488.557 59.0963 488.695 59.1882 488.695 59.3019L488.698 61.155C488.698 61.2687 488.561 61.3611 488.391 61.3614C488.221 61.3617 488.083 61.2698 488.083 61.1561L488.08 59.8001L89.2532 327.669L91.2796 327.666C91.4495 327.665 91.5874 327.757 91.5876 327.871C91.5878 327.985 91.4502 328.077 91.2803 328.077L88.511 328.082C88.3411 328.082 88.2032 327.99 88.203 327.877L88.1998 326.024C88.1996 325.91 88.3372 325.818 88.5071 325.817C88.6771 325.817 88.815 325.909 88.8152 326.023L88.8175 327.379L487.645 59.5096L485.618 59.5131C485.448 59.5134 485.31 59.4215 485.31 59.3078C485.31 59.1941 485.448 59.1016 485.617 59.1013L488.387 59.0966Z" fill="url(#paint2_linear_16389_35435)"/>
<path d="M506.121 70.9193C506.121 70.8055 505.983 70.7136 505.813 70.7139L503.043 70.7186C502.873 70.7189 502.736 70.8114 502.736 70.9251C502.736 71.0388 502.874 71.1307 503.044 71.1304L505.071 71.127L106.243 338.996L106.241 337.64C106.241 337.526 106.103 337.434 105.933 337.435C105.763 337.435 105.626 337.527 105.626 337.641L105.629 339.494C105.629 339.608 105.767 339.7 105.937 339.699L108.706 339.695C108.876 339.694 109.014 339.602 109.014 339.488C109.013 339.374 108.875 339.283 108.706 339.283L106.679 339.286L505.506 71.4174L505.509 72.7734C505.509 72.8871 505.647 72.979 505.817 72.9787C505.987 72.9784 506.124 72.886 506.124 72.7723L506.121 70.9193Z" fill="url(#paint3_linear_16389_35435)"/>
<path d="M523.239 82.3312C523.409 82.3309 523.546 82.4228 523.547 82.5366L523.55 84.3896C523.55 84.5033 523.412 84.5957 523.243 84.596C523.073 84.5963 522.935 84.5044 522.934 84.3907L522.932 83.0347L124.105 350.904L126.131 350.9C126.301 350.9 126.439 350.992 126.44 351.106C126.44 351.219 126.302 351.312 126.132 351.312L123.363 351.317C123.193 351.317 123.055 351.225 123.055 351.111L123.052 349.258C123.052 349.145 123.189 349.052 123.359 349.052C123.529 349.052 123.667 349.144 123.667 349.257L123.669 350.613L522.496 82.7443L520.47 82.7477C520.3 82.748 520.162 82.6561 520.162 82.5424C520.162 82.4287 520.299 82.3362 520.469 82.3359L523.239 82.3312Z" fill="url(#paint4_linear_16389_35435)"/>
<path d="M540.973 94.1539C540.972 94.0401 540.835 93.9482 540.665 93.9485L537.895 93.9532C537.725 93.9535 537.588 94.046 537.588 94.1597C537.588 94.2734 537.726 94.3653 537.896 94.365L539.922 94.3616L141.095 362.23L141.093 360.875C141.093 360.761 140.955 360.669 140.785 360.669C140.615 360.669 140.477 360.762 140.478 360.876L140.481 362.729C140.481 362.842 140.619 362.934 140.789 362.934L143.558 362.929C143.728 362.929 143.866 362.837 143.865 362.723C143.865 362.609 143.727 362.517 143.557 362.517L141.531 362.521L540.358 94.652L540.36 96.008C540.361 96.1217 540.499 96.2136 540.668 96.2133C540.838 96.213 540.976 96.1206 540.976 96.0069L540.973 94.1539Z" fill="url(#paint5_linear_16389_35435)"/>
<path d="M558.091 105.566C558.26 105.565 558.398 105.657 558.399 105.771L558.402 107.624C558.402 107.738 558.264 107.83 558.094 107.831C557.924 107.831 557.787 107.739 557.786 107.625L557.784 106.269L158.957 374.138L160.983 374.135C161.153 374.134 161.291 374.226 161.291 374.34C161.292 374.454 161.154 374.546 160.984 374.547L158.215 374.551C158.045 374.552 157.907 374.46 157.907 374.346L157.904 372.493C157.903 372.379 158.041 372.287 158.211 372.286C158.381 372.286 158.519 372.378 158.519 372.492L158.521 373.848L557.348 105.979L555.322 105.982C555.152 105.983 555.014 105.891 555.014 105.777C555.014 105.663 555.151 105.571 555.321 105.571L558.091 105.566Z" fill="url(#paint6_linear_16389_35435)"/>
<path d="M575.825 117.388C575.824 117.275 575.686 117.183 575.517 117.183L572.747 117.188C572.577 117.188 572.44 117.281 572.44 117.394C572.44 117.508 572.578 117.6 572.748 117.6L574.774 117.596L175.947 385.465L175.945 384.109C175.945 383.995 175.807 383.903 175.637 383.904C175.467 383.904 175.329 383.996 175.33 384.11L175.333 385.963C175.333 386.077 175.471 386.169 175.641 386.169L178.41 386.164C178.58 386.164 178.718 386.071 178.717 385.957C178.717 385.844 178.579 385.752 178.409 385.752L176.383 385.756L575.21 117.887L575.212 119.243C575.213 119.356 575.35 119.448 575.52 119.448C575.69 119.448 575.828 119.355 575.828 119.242L575.825 117.388Z" fill="url(#paint7_linear_16389_35435)"/>
<path d="M592.942 128.8C593.112 128.8 593.25 128.892 593.25 129.006L593.254 130.859C593.254 130.973 593.116 131.065 592.946 131.065C592.776 131.066 592.638 130.974 592.638 130.86L592.636 129.504L193.809 397.373L195.835 397.369C196.005 397.369 196.143 397.461 196.143 397.575C196.144 397.688 196.006 397.781 195.836 397.781L193.067 397.786C192.897 397.786 192.759 397.694 192.759 397.581L192.756 395.727C192.755 395.614 192.893 395.521 193.063 395.521C193.233 395.521 193.371 395.613 193.371 395.726L193.373 397.082L592.2 129.213L590.174 129.217C590.004 129.217 589.866 129.125 589.866 129.012C589.866 128.898 590.003 128.805 590.173 128.805L592.942 128.8Z" fill="url(#paint8_linear_16389_35435)"/>
<path d="M610.676 140.623C610.676 140.509 610.538 140.417 610.368 140.418L607.599 140.422C607.429 140.423 607.292 140.515 607.292 140.629C607.292 140.743 607.43 140.835 607.6 140.834L609.626 140.831L210.799 408.7L210.797 407.344C210.797 407.23 210.659 407.138 210.489 407.138C210.319 407.139 210.181 407.231 210.181 407.345L210.185 409.198C210.185 409.312 210.323 409.404 210.493 409.403L213.262 409.398C213.432 409.398 213.57 409.306 213.569 409.192C213.569 409.078 213.431 408.986 213.261 408.987L211.235 408.99L610.062 141.121L610.064 142.477C610.064 142.591 610.202 142.683 610.372 142.683C610.542 142.682 610.68 142.59 610.68 142.476L610.676 140.623Z" fill="url(#paint9_linear_16389_35435)"/>
<path d="M627.794 152.035C627.964 152.035 628.102 152.127 628.102 152.24L628.106 154.093C628.106 154.207 627.968 154.3 627.798 154.3C627.628 154.3 627.49 154.208 627.49 154.094L627.488 152.739L228.661 420.607L230.687 420.604C230.857 420.604 230.995 420.696 230.995 420.809C230.995 420.923 230.858 421.015 230.688 421.016L227.919 421.021C227.749 421.021 227.611 420.929 227.611 420.815L227.607 418.962C227.607 418.848 227.745 418.756 227.915 418.756C228.085 418.755 228.223 418.847 228.223 418.961L228.225 420.317L627.052 152.448L625.026 152.452C624.856 152.452 624.718 152.36 624.718 152.246C624.718 152.132 624.855 152.04 625.025 152.04L627.794 152.035Z" fill="url(#paint10_linear_16389_35435)"/>
<path d="M645.528 163.858C645.528 163.744 645.39 163.652 645.22 163.652L642.451 163.657C642.281 163.657 642.144 163.75 642.144 163.863C642.144 163.977 642.282 164.069 642.452 164.069L644.478 164.065L245.651 431.934L245.649 430.578C245.649 430.465 245.511 430.373 245.341 430.373C245.171 430.373 245.033 430.466 245.033 430.579L245.037 432.432C245.037 432.546 245.175 432.638 245.345 432.638L248.114 432.633C248.284 432.633 248.421 432.54 248.421 432.427C248.421 432.313 248.283 432.221 248.113 432.221L246.087 432.225L644.914 164.356L644.916 165.712C644.916 165.826 645.054 165.917 645.224 165.917C645.394 165.917 645.532 165.824 645.532 165.711L645.528 163.858Z" fill="url(#paint11_linear_16389_35435)"/>
<path d="M662.646 175.27C662.816 175.269 662.954 175.361 662.954 175.475L662.958 177.328C662.958 177.442 662.82 177.534 662.65 177.534C662.48 177.535 662.342 177.443 662.342 177.329L662.34 175.973L263.513 443.842L265.539 443.839C265.709 443.838 265.847 443.93 265.847 444.044C265.847 444.158 265.71 444.25 265.54 444.25L262.771 444.255C262.601 444.255 262.463 444.163 262.463 444.05L262.459 442.197C262.459 442.083 262.597 441.991 262.767 441.99C262.937 441.99 263.075 442.082 263.075 442.196L263.077 443.552L661.904 175.683L659.878 175.686C659.708 175.686 659.57 175.595 659.57 175.481C659.569 175.367 659.707 175.275 659.877 175.274L662.646 175.27Z" fill="url(#paint12_linear_16389_35435)"/>
<path d="M680.38 187.092C680.38 186.979 680.242 186.887 680.072 186.887L677.303 186.892C677.133 186.892 676.995 186.984 676.996 187.098C676.996 187.212 677.134 187.304 677.304 187.303L679.33 187.3L280.503 455.169L280.501 453.813C280.501 453.699 280.363 453.607 280.193 453.608C280.023 453.608 279.885 453.7 279.885 453.814L279.888 455.667C279.889 455.781 280.027 455.873 280.197 455.872L282.966 455.868C283.136 455.867 283.273 455.775 283.273 455.661C283.273 455.548 283.135 455.456 282.965 455.456L280.939 455.459L679.766 187.59L679.768 188.946C679.768 189.06 679.906 189.152 680.076 189.152C680.246 189.151 680.384 189.059 680.383 188.945L680.38 187.092Z" fill="url(#paint13_linear_16389_35435)"/>
<path d="M697.498 198.504C697.668 198.504 697.806 198.596 697.806 198.71L697.809 200.563C697.81 200.676 697.672 200.769 697.502 200.769C697.332 200.769 697.194 200.677 697.194 200.564L697.192 199.208L298.365 467.077L300.391 467.073C300.561 467.073 300.699 467.165 300.699 467.279C300.699 467.392 300.562 467.485 300.392 467.485L297.623 467.49C297.453 467.49 297.315 467.398 297.314 467.284L297.311 465.431C297.311 465.318 297.449 465.225 297.619 465.225C297.789 465.225 297.926 465.317 297.927 465.43L297.929 466.786L696.756 198.917L694.73 198.921C694.56 198.921 694.422 198.829 694.422 198.715C694.421 198.602 694.559 198.509 694.729 198.509L697.498 198.504Z" fill="url(#paint14_linear_16389_35435)"/>
<path d="M715.232 210.327C715.232 210.213 715.094 210.121 714.924 210.122L712.155 210.126C711.985 210.127 711.847 210.219 711.848 210.333C711.848 210.446 711.986 210.538 712.156 210.538L714.182 210.535L315.355 478.404L315.353 477.048C315.352 476.934 315.214 476.842 315.045 476.842C314.875 476.842 314.737 476.935 314.737 477.049L314.74 478.902C314.741 479.015 314.879 479.107 315.048 479.107L317.818 479.102C317.988 479.102 318.125 479.01 318.125 478.896C318.125 478.782 317.987 478.69 317.817 478.69L315.791 478.694L714.618 210.825L714.62 212.181C714.62 212.295 714.758 212.387 714.928 212.386C715.098 212.386 715.236 212.294 715.235 212.18L715.232 210.327Z" fill="url(#paint15_linear_16389_35435)"/>
<path d="M732.35 221.739C732.52 221.739 732.658 221.83 732.658 221.944L732.661 223.797C732.662 223.911 732.524 224.003 732.354 224.004C732.184 224.004 732.046 223.912 732.046 223.798L732.044 222.442L333.217 490.311L335.243 490.308C335.413 490.308 335.551 490.399 335.551 490.513C335.551 490.627 335.414 490.719 335.244 490.72L332.474 490.724C332.304 490.725 332.167 490.633 332.166 490.519L332.163 488.666C332.163 488.552 332.301 488.46 332.471 488.459C332.64 488.459 332.778 488.551 332.779 488.665L332.781 490.021L731.608 222.152L729.582 222.155C729.412 222.156 729.274 222.064 729.274 221.95C729.273 221.836 729.411 221.744 729.581 221.744L732.35 221.739Z" fill="url(#paint16_linear_16389_35435)"/>
<path d="M750.084 233.562C750.084 233.448 749.946 233.356 749.776 233.356L747.007 233.361C746.837 233.361 746.699 233.454 746.699 233.567C746.7 233.681 746.838 233.773 747.008 233.773L749.034 233.769L350.207 501.638L350.205 500.282C350.204 500.168 350.066 500.077 349.896 500.077C349.727 500.077 349.589 500.17 349.589 500.283L349.592 502.136C349.593 502.25 349.73 502.342 349.9 502.342L352.67 502.337C352.84 502.337 352.977 502.244 352.977 502.13C352.977 502.017 352.839 501.925 352.669 501.925L350.643 501.929L749.47 234.06L749.472 235.416C749.472 235.529 749.61 235.621 749.78 235.621C749.95 235.621 750.087 235.528 750.087 235.415L750.084 233.562Z" fill="url(#paint17_linear_16389_35435)"/>
</g>
<g opacity="0.2">
<path d="M451.573 502.166C451.743 502.166 451.88 502.074 451.88 501.96L451.877 500.107C451.877 499.993 451.739 499.901 451.569 499.901C451.399 499.902 451.261 499.994 451.261 500.108L451.264 501.464L51.5186 234.967L53.545 234.963C53.7149 234.963 53.8525 234.871 53.8523 234.757C53.8521 234.643 53.7142 234.551 53.5443 234.552L50.775 234.556C50.6051 234.557 50.4675 234.649 50.4677 234.763L50.4709 236.616C50.4711 236.73 50.609 236.822 50.7789 236.821C50.9488 236.821 51.0865 236.729 51.0863 236.615L51.0839 235.259L450.829 501.756L448.803 501.759C448.633 501.76 448.495 501.852 448.495 501.966C448.496 502.079 448.633 502.171 448.803 502.171L451.573 502.166Z" fill="url(#paint18_linear_16389_35435)"/>
<path d="M469.266 490.283C469.266 490.396 469.129 490.489 468.959 490.489L466.189 490.494C466.019 490.494 465.882 490.402 465.881 490.289C465.881 490.175 466.019 490.082 466.189 490.082L468.215 490.079L68.4699 223.582L68.4722 224.938C68.4724 225.051 68.3348 225.144 68.1649 225.144C67.9949 225.144 67.857 225.053 67.8568 224.939L67.8536 223.086C67.8534 222.972 67.991 222.88 68.161 222.879L70.9302 222.875C71.1002 222.874 71.2381 222.966 71.2383 223.08C71.2385 223.194 71.1009 223.286 70.9309 223.286L68.9045 223.29L468.65 489.787L468.647 488.431C468.647 488.317 468.785 488.225 468.955 488.224C469.125 488.224 469.263 488.316 469.263 488.43L469.266 490.283Z" fill="url(#paint19_linear_16389_35435)"/>
<path d="M486.345 478.812C486.515 478.812 486.652 478.719 486.652 478.606L486.649 476.753C486.648 476.639 486.511 476.547 486.341 476.547C486.171 476.547 486.033 476.64 486.033 476.754L486.036 478.11L86.2904 211.613L88.3169 211.609C88.4868 211.609 88.6244 211.517 88.6242 211.403C88.624 211.289 88.4861 211.197 88.3162 211.197L85.5469 211.202C85.3769 211.203 85.2394 211.295 85.2395 211.409L85.2427 213.262C85.2429 213.375 85.3809 213.467 85.5508 213.467C85.7207 213.467 85.8583 213.374 85.8581 213.261L85.8558 211.905L485.601 478.401L483.575 478.405C483.405 478.405 483.267 478.498 483.267 478.611C483.267 478.725 483.405 478.817 483.575 478.817L486.345 478.812Z" fill="url(#paint20_linear_16389_35435)"/>
<path d="M504.038 466.928C504.038 467.042 503.9 467.135 503.73 467.135L500.961 467.14C500.791 467.14 500.653 467.048 500.653 466.934C500.653 466.821 500.791 466.728 500.961 466.728L502.987 466.724L103.242 200.228L103.244 201.584C103.244 201.697 103.107 201.79 102.937 201.79C102.767 201.79 102.629 201.698 102.629 201.585L102.625 199.732C102.625 199.618 102.763 199.525 102.933 199.525L105.702 199.52C105.872 199.52 106.01 199.612 106.01 199.726C106.01 199.839 105.873 199.932 105.703 199.932L103.676 199.936L503.422 466.432L503.419 465.076C503.419 464.963 503.557 464.87 503.727 464.87C503.897 464.87 504.034 464.962 504.035 465.075L504.038 466.928Z" fill="url(#paint21_linear_16389_35435)"/>
<path d="M521.116 455.458C521.286 455.457 521.424 455.365 521.424 455.251L521.421 453.398C521.42 453.285 521.282 453.193 521.113 453.193C520.943 453.193 520.805 453.286 520.805 453.399L520.808 454.755L121.062 188.259L123.089 188.255C123.259 188.255 123.396 188.162 123.396 188.049C123.396 187.935 123.258 187.843 123.088 187.843L120.319 187.848C120.149 187.848 120.011 187.941 120.011 188.054L120.015 189.907C120.015 190.021 120.153 190.113 120.323 190.113C120.493 190.113 120.63 190.02 120.63 189.906L120.628 188.55L520.373 455.047L518.346 455.051C518.177 455.051 518.039 455.143 518.039 455.257C518.039 455.371 518.177 455.463 518.347 455.463L521.116 455.458Z" fill="url(#paint22_linear_16389_35435)"/>
<path d="M538.81 443.574C538.81 443.688 538.672 443.78 538.502 443.781L535.733 443.785C535.563 443.786 535.425 443.694 535.425 443.58C535.425 443.466 535.562 443.374 535.732 443.374L537.759 443.37L138.014 176.873L138.016 178.229C138.016 178.343 137.879 178.435 137.709 178.436C137.539 178.436 137.401 178.344 137.401 178.23L137.397 176.377C137.397 176.264 137.535 176.171 137.705 176.171L140.474 176.166C140.644 176.166 140.782 176.258 140.782 176.371C140.782 176.485 140.645 176.578 140.475 176.578L138.448 176.581L538.193 443.078L538.191 441.722C538.191 441.608 538.329 441.516 538.498 441.516C538.668 441.515 538.806 441.607 538.807 441.721L538.81 443.574Z" fill="url(#paint23_linear_16389_35435)"/>
<path d="M555.888 432.104C556.058 432.103 556.196 432.011 556.196 431.897L556.192 430.044C556.192 429.93 556.054 429.838 555.884 429.839C555.714 429.839 555.577 429.931 555.577 430.045L555.579 431.401L155.834 164.904L157.861 164.901C158.031 164.9 158.168 164.808 158.168 164.694C158.168 164.581 158.03 164.489 157.86 164.489L155.091 164.494C154.921 164.494 154.783 164.586 154.783 164.7L154.786 166.553C154.787 166.667 154.925 166.759 155.095 166.759C155.264 166.758 155.402 166.666 155.402 166.552L155.4 165.196L555.145 431.693L553.118 431.696C552.948 431.697 552.811 431.789 552.811 431.903C552.811 432.017 552.949 432.109 553.119 432.108L555.888 432.104Z" fill="url(#paint24_linear_16389_35435)"/>
<path d="M573.582 420.22C573.582 420.334 573.444 420.426 573.274 420.426L570.505 420.431C570.335 420.431 570.197 420.34 570.197 420.226C570.197 420.112 570.334 420.02 570.504 420.019L572.531 420.016L172.785 153.519L172.788 154.875C172.788 154.989 172.65 155.081 172.48 155.081C172.311 155.082 172.173 154.99 172.172 154.876L172.169 153.023C172.169 152.909 172.307 152.817 172.477 152.817L175.246 152.812C175.416 152.812 175.554 152.904 175.554 153.017C175.554 153.131 175.416 153.223 175.247 153.224L173.22 153.227L572.965 419.724L572.963 418.368C572.963 418.254 573.1 418.162 573.27 418.162C573.44 418.161 573.578 418.253 573.578 418.367L573.582 420.22Z" fill="url(#paint25_linear_16389_35435)"/>
<path d="M590.66 408.749C590.83 408.749 590.968 408.657 590.968 408.543L590.964 406.69C590.964 406.576 590.826 406.484 590.656 406.484C590.486 406.485 590.349 406.577 590.349 406.691L590.351 408.047L190.606 141.55L192.632 141.547C192.802 141.546 192.94 141.454 192.94 141.34C192.94 141.226 192.802 141.134 192.632 141.135L189.862 141.14C189.693 141.14 189.555 141.232 189.555 141.346L189.558 143.199C189.559 143.313 189.696 143.405 189.866 143.404C190.036 143.404 190.174 143.312 190.174 143.198L190.171 141.842L589.917 408.339L587.89 408.342C587.72 408.343 587.583 408.435 587.583 408.549C587.583 408.662 587.721 408.754 587.891 408.754L590.66 408.749Z" fill="url(#paint26_linear_16389_35435)"/>
<path d="M608.353 396.866C608.354 396.979 608.216 397.072 608.046 397.072L605.277 397.077C605.107 397.077 604.969 396.985 604.969 396.872C604.969 396.758 605.106 396.665 605.276 396.665L607.303 396.662L207.557 130.165L207.56 131.521C207.56 131.635 207.422 131.727 207.252 131.727C207.082 131.728 206.944 131.636 206.944 131.522L206.941 129.669C206.941 129.555 207.078 129.463 207.248 129.462L210.018 129.458C210.188 129.457 210.326 129.549 210.326 129.663C210.326 129.777 210.188 129.869 210.018 129.869L207.992 129.873L607.737 396.37L607.735 395.014C607.735 394.9 607.872 394.808 608.042 394.807C608.212 394.807 608.35 394.899 608.35 395.013L608.353 396.866Z" fill="url(#paint27_linear_16389_35435)"/>
<path d="M625.432 385.395C625.602 385.395 625.74 385.302 625.739 385.189L625.736 383.336C625.736 383.222 625.598 383.13 625.428 383.13C625.258 383.13 625.121 383.223 625.121 383.337L625.123 384.693L225.378 118.196L227.404 118.192C227.574 118.192 227.712 118.1 227.712 117.986C227.711 117.872 227.574 117.78 227.404 117.781L224.634 117.785C224.464 117.786 224.327 117.878 224.327 117.992L224.33 119.845C224.33 119.958 224.468 120.05 224.638 120.05C224.808 120.05 224.946 119.957 224.946 119.844L224.943 118.488L624.688 384.985L622.662 384.988C622.492 384.988 622.355 385.081 622.355 385.194C622.355 385.308 622.493 385.4 622.663 385.4L625.432 385.395Z" fill="url(#paint28_linear_16389_35435)"/>
<path d="M643.125 373.512C643.125 373.625 642.988 373.718 642.818 373.718L640.049 373.723C639.879 373.723 639.741 373.631 639.741 373.517C639.74 373.404 639.878 373.311 640.048 373.311L642.074 373.307L242.329 106.811L242.332 108.167C242.332 108.28 242.194 108.373 242.024 108.373C241.854 108.373 241.716 108.281 241.716 108.168L241.713 106.315C241.713 106.201 241.85 106.108 242.02 106.108L244.79 106.103C244.959 106.103 245.097 106.195 245.098 106.309C245.098 106.422 244.96 106.515 244.79 106.515L242.764 106.519L642.509 373.015L642.507 371.66C642.507 371.546 642.644 371.453 642.814 371.453C642.984 371.453 643.122 371.545 643.122 371.658L643.125 373.512Z" fill="url(#paint29_linear_16389_35435)"/>
<path d="M660.204 362.041C660.374 362.041 660.511 361.948 660.511 361.834L660.508 359.981C660.508 359.868 660.37 359.776 660.2 359.776C660.03 359.776 659.892 359.869 659.893 359.982L659.895 361.338L260.15 94.8416L262.176 94.8381C262.346 94.8378 262.484 94.7454 262.484 94.6316C262.483 94.5179 262.345 94.426 262.175 94.4263L259.406 94.431C259.236 94.4313 259.099 94.5238 259.099 94.6375L259.102 96.4905C259.102 96.6042 259.24 96.6962 259.41 96.6959C259.58 96.6956 259.718 96.6032 259.717 96.4895L259.715 95.1335L659.46 361.63L657.434 361.634C657.264 361.634 657.126 361.726 657.127 361.84C657.127 361.954 657.265 362.046 657.435 362.046L660.204 362.041Z" fill="url(#paint30_linear_16389_35435)"/>
<path d="M677.897 350.157C677.897 350.271 677.76 350.363 677.59 350.364L674.821 350.368C674.651 350.369 674.513 350.277 674.512 350.163C674.512 350.049 674.65 349.957 674.82 349.957L676.846 349.953L277.101 83.4564L277.103 84.8123C277.104 84.9261 276.966 85.0185 276.796 85.0188C276.626 85.0191 276.488 84.9271 276.488 84.8134L276.485 82.9603C276.485 82.8466 276.622 82.7542 276.792 82.7539L279.561 82.7492C279.731 82.7489 279.869 82.8408 279.869 82.9545C279.87 83.0682 279.732 83.1607 279.562 83.161L277.536 83.1644L677.281 349.661L677.279 348.305C677.278 348.192 677.416 348.099 677.586 348.099C677.756 348.099 677.894 348.19 677.894 348.304L677.897 350.157Z" fill="url(#paint31_linear_16389_35435)"/>
<path d="M694.976 338.687C695.146 338.686 695.283 338.594 695.283 338.48L695.28 336.627C695.28 336.513 695.142 336.421 694.972 336.422C694.802 336.422 694.664 336.514 694.665 336.628L694.667 337.984L294.922 71.4873L296.948 71.4838C297.118 71.4835 297.256 71.3911 297.255 71.2774C297.255 71.1637 297.117 71.0718 296.947 71.0721L294.178 71.0768C294.008 71.0771 293.871 71.1695 293.871 71.2832L293.874 73.1363C293.874 73.25 294.012 73.342 294.182 73.3417C294.352 73.3414 294.489 73.2489 294.489 73.1352L294.487 71.7792L694.232 338.276L692.206 338.28C692.036 338.28 691.898 338.372 691.898 338.486C691.899 338.6 692.037 338.692 692.206 338.691L694.976 338.687Z" fill="url(#paint32_linear_16389_35435)"/>
<path d="M712.669 326.803C712.669 326.917 712.532 327.009 712.362 327.009L709.592 327.014C709.422 327.015 709.285 326.923 709.284 326.809C709.284 326.695 709.422 326.603 709.592 326.602L711.618 326.599L311.873 60.1021L311.875 61.4581C311.875 61.5718 311.738 61.6642 311.568 61.6645C311.398 61.6648 311.26 61.5729 311.26 61.4592L311.257 59.6061C311.256 59.4924 311.394 59.4 311.564 59.3997L314.333 59.3949C314.503 59.3946 314.641 59.4866 314.641 59.6003C314.642 59.714 314.504 59.8064 314.334 59.8067L312.308 59.8102L712.053 326.307L712.05 324.951C712.05 324.837 712.188 324.745 712.358 324.745C712.528 324.744 712.666 324.836 712.666 324.95L712.669 326.803Z" fill="url(#paint33_linear_16389_35435)"/>
<path d="M729.748 315.332C729.918 315.332 730.055 315.24 730.055 315.126L730.052 313.273C730.052 313.159 729.914 313.067 729.744 313.067C729.574 313.068 729.436 313.16 729.436 313.274L729.439 314.63L329.693 48.1331L331.72 48.1296C331.89 48.1293 332.027 48.0369 332.027 47.9232C332.027 47.8095 331.889 47.7175 331.719 47.7178L328.95 47.7226C328.78 47.7229 328.642 47.8153 328.643 47.929L328.646 49.7821C328.646 49.8958 328.784 49.9877 328.954 49.9874C329.124 49.9871 329.261 49.8947 329.261 49.781L329.259 48.425L729.004 314.922L726.978 314.925C726.808 314.926 726.67 315.018 726.67 315.132C726.67 315.245 726.808 315.337 726.978 315.337L729.748 315.332Z" fill="url(#paint34_linear_16389_35435)"/>
<path d="M747.134 303.655C747.303 303.655 747.441 303.563 747.441 303.449L747.438 301.596C747.437 301.482 747.3 301.39 747.13 301.39C746.96 301.391 746.822 301.483 746.822 301.597L746.825 302.953L347.079 36.456L349.106 36.4525C349.276 36.4522 349.413 36.3598 349.413 36.2461C349.413 36.1324 349.275 36.0404 349.105 36.0407L346.336 36.0455C346.166 36.0457 346.028 36.1382 346.029 36.2519L346.032 38.1049C346.032 38.2187 346.17 38.3106 346.34 38.3103C346.51 38.31 346.647 38.2176 346.647 38.1039L346.645 36.7479L746.39 303.245L744.364 303.248C744.194 303.248 744.056 303.341 744.056 303.455C744.056 303.568 744.194 303.66 744.364 303.66L747.134 303.655Z" fill="url(#paint35_linear_16389_35435)"/>
</g>
</g>
<path d="M316.766 364.781H321.795C322.876 364.781 323.797 364.944 324.559 365.27C325.32 365.595 325.903 366.077 326.307 366.715C326.717 367.346 326.922 368.128 326.922 369.059C326.922 369.768 326.792 370.393 326.531 370.934C326.271 371.474 325.903 371.93 325.428 372.301C324.952 372.665 324.386 372.949 323.729 373.15L322.986 373.512H318.465L318.445 371.568H321.834C322.42 371.568 322.908 371.464 323.299 371.256C323.689 371.048 323.982 370.764 324.178 370.406C324.38 370.042 324.48 369.632 324.48 369.176C324.48 368.681 324.383 368.251 324.188 367.887C323.999 367.516 323.706 367.232 323.309 367.037C322.911 366.835 322.407 366.734 321.795 366.734H319.217V379H316.766V364.781ZM324.881 379L321.541 372.613L324.109 372.604L327.498 378.873V379H324.881ZM328.68 373.834V373.609C328.68 372.848 328.79 372.141 329.012 371.49C329.233 370.833 329.552 370.263 329.969 369.781C330.392 369.293 330.906 368.915 331.512 368.648C332.124 368.375 332.814 368.238 333.582 368.238C334.357 368.238 335.047 368.375 335.652 368.648C336.264 368.915 336.782 369.293 337.205 369.781C337.628 370.263 337.951 370.833 338.172 371.49C338.393 372.141 338.504 372.848 338.504 373.609V373.834C338.504 374.596 338.393 375.302 338.172 375.953C337.951 376.604 337.628 377.174 337.205 377.662C336.782 378.144 336.268 378.521 335.662 378.795C335.057 379.062 334.37 379.195 333.602 379.195C332.827 379.195 332.133 379.062 331.521 378.795C330.916 378.521 330.402 378.144 329.979 377.662C329.555 377.174 329.233 376.604 329.012 375.953C328.79 375.302 328.68 374.596 328.68 373.834ZM331.033 373.609V373.834C331.033 374.309 331.082 374.758 331.18 375.182C331.277 375.605 331.43 375.976 331.639 376.295C331.847 376.614 332.114 376.865 332.439 377.047C332.765 377.229 333.152 377.32 333.602 377.32C334.038 377.32 334.415 377.229 334.734 377.047C335.06 376.865 335.327 376.614 335.535 376.295C335.743 375.976 335.896 375.605 335.994 375.182C336.098 374.758 336.15 374.309 336.15 373.834V373.609C336.15 373.141 336.098 372.698 335.994 372.281C335.896 371.858 335.74 371.484 335.525 371.158C335.317 370.833 335.05 370.579 334.725 370.396C334.406 370.208 334.025 370.113 333.582 370.113C333.139 370.113 332.755 370.208 332.43 370.396C332.111 370.579 331.847 370.833 331.639 371.158C331.43 371.484 331.277 371.858 331.18 372.281C331.082 372.698 331.033 373.141 331.033 373.609ZM340.486 364H342.84V376.744L342.615 379H340.486V364ZM349.734 373.619V373.824C349.734 374.605 349.646 375.325 349.471 375.982C349.301 376.633 349.041 377.2 348.689 377.682C348.344 378.163 347.915 378.538 347.4 378.805C346.893 379.065 346.303 379.195 345.633 379.195C344.975 379.195 344.402 379.072 343.914 378.824C343.426 378.577 343.016 378.225 342.684 377.77C342.358 377.314 342.094 376.77 341.893 376.139C341.691 375.507 341.548 374.811 341.463 374.049V373.395C341.548 372.626 341.691 371.93 341.893 371.305C342.094 370.673 342.358 370.13 342.684 369.674C343.016 369.212 343.423 368.857 343.904 368.609C344.393 368.362 344.962 368.238 345.613 368.238C346.29 368.238 346.886 368.368 347.4 368.629C347.921 368.889 348.354 369.26 348.699 369.742C349.044 370.217 349.301 370.784 349.471 371.441C349.646 372.099 349.734 372.825 349.734 373.619ZM347.381 373.824V373.619C347.381 373.144 347.342 372.698 347.264 372.281C347.186 371.858 347.055 371.487 346.873 371.168C346.697 370.849 346.456 370.598 346.15 370.416C345.851 370.227 345.477 370.133 345.027 370.133C344.611 370.133 344.253 370.204 343.953 370.348C343.654 370.491 343.403 370.686 343.201 370.934C342.999 371.181 342.84 371.467 342.723 371.793C342.612 372.118 342.537 372.47 342.498 372.848V374.615C342.557 375.104 342.68 375.553 342.869 375.963C343.064 376.367 343.338 376.692 343.689 376.939C344.041 377.18 344.493 377.301 345.047 377.301C345.483 377.301 345.851 377.213 346.15 377.037C346.45 376.861 346.688 376.617 346.863 376.305C347.046 375.986 347.176 375.615 347.254 375.191C347.339 374.768 347.381 374.312 347.381 373.824ZM358.084 376.51V368.434H360.447V379H358.221L358.084 376.51ZM358.416 374.312L359.207 374.293C359.207 375.003 359.129 375.657 358.973 376.256C358.816 376.848 358.576 377.366 358.25 377.809C357.924 378.245 357.508 378.587 357 378.834C356.492 379.075 355.883 379.195 355.174 379.195C354.66 379.195 354.188 379.12 353.758 378.971C353.328 378.821 352.957 378.59 352.645 378.277C352.339 377.965 352.101 377.558 351.932 377.057C351.762 376.555 351.678 375.956 351.678 375.26V368.434H354.031V375.279C354.031 375.663 354.077 375.986 354.168 376.246C354.259 376.5 354.383 376.705 354.539 376.861C354.695 377.018 354.878 377.128 355.086 377.193C355.294 377.258 355.516 377.291 355.75 377.291C356.421 377.291 356.948 377.161 357.332 376.9C357.723 376.633 357.999 376.275 358.162 375.826C358.331 375.377 358.416 374.872 358.416 374.312ZM368.787 376.139C368.787 375.904 368.729 375.693 368.611 375.504C368.494 375.309 368.27 375.133 367.938 374.977C367.612 374.82 367.13 374.677 366.492 374.547C365.932 374.423 365.418 374.277 364.949 374.107C364.487 373.932 364.09 373.72 363.758 373.473C363.426 373.225 363.169 372.932 362.986 372.594C362.804 372.255 362.713 371.865 362.713 371.422C362.713 370.992 362.807 370.585 362.996 370.201C363.185 369.817 363.455 369.479 363.807 369.186C364.158 368.893 364.585 368.661 365.086 368.492C365.594 368.323 366.16 368.238 366.785 368.238C367.671 368.238 368.429 368.388 369.061 368.688C369.699 368.98 370.187 369.381 370.525 369.889C370.864 370.39 371.033 370.956 371.033 371.588H368.68C368.68 371.308 368.608 371.048 368.465 370.807C368.328 370.559 368.12 370.361 367.84 370.211C367.56 370.055 367.208 369.977 366.785 369.977C366.382 369.977 366.046 370.042 365.779 370.172C365.519 370.296 365.324 370.458 365.193 370.66C365.07 370.862 365.008 371.083 365.008 371.324C365.008 371.5 365.04 371.66 365.105 371.803C365.177 371.939 365.294 372.066 365.457 372.184C365.62 372.294 365.841 372.398 366.121 372.496C366.408 372.594 366.766 372.688 367.195 372.779C368.003 372.949 368.696 373.167 369.275 373.434C369.861 373.694 370.311 374.033 370.623 374.449C370.936 374.859 371.092 375.38 371.092 376.012C371.092 376.48 370.991 376.91 370.789 377.301C370.594 377.685 370.307 378.02 369.93 378.307C369.552 378.587 369.1 378.805 368.572 378.961C368.051 379.117 367.465 379.195 366.814 379.195C365.857 379.195 365.047 379.026 364.383 378.688C363.719 378.342 363.214 377.903 362.869 377.369C362.531 376.829 362.361 376.269 362.361 375.689H364.637C364.663 376.126 364.783 376.474 364.998 376.734C365.219 376.988 365.493 377.174 365.818 377.291C366.15 377.402 366.492 377.457 366.844 377.457C367.267 377.457 367.622 377.402 367.908 377.291C368.195 377.174 368.413 377.018 368.562 376.822C368.712 376.62 368.787 376.393 368.787 376.139ZM377.996 368.434V370.152H372.039V368.434H377.996ZM373.758 365.846H376.111V376.08C376.111 376.406 376.157 376.656 376.248 376.832C376.346 377.001 376.479 377.115 376.648 377.174C376.818 377.232 377.016 377.262 377.244 377.262C377.407 377.262 377.563 377.252 377.713 377.232C377.863 377.213 377.983 377.193 378.074 377.174L378.084 378.971C377.889 379.029 377.661 379.081 377.4 379.127C377.146 379.173 376.854 379.195 376.521 379.195C375.981 379.195 375.503 379.101 375.086 378.912C374.669 378.717 374.344 378.401 374.109 377.965C373.875 377.529 373.758 376.949 373.758 376.227V365.846ZM387.645 364.781V379H385.193V364.781H387.645ZM392.791 370.689V379H390.438V368.434H392.654L392.791 370.689ZM392.371 373.326L391.609 373.316C391.616 372.568 391.72 371.881 391.922 371.256C392.13 370.631 392.417 370.094 392.781 369.645C393.152 369.195 393.595 368.85 394.109 368.609C394.624 368.362 395.197 368.238 395.828 368.238C396.336 368.238 396.795 368.31 397.205 368.453C397.622 368.59 397.977 368.814 398.27 369.127C398.569 369.439 398.797 369.846 398.953 370.348C399.109 370.842 399.188 371.451 399.188 372.174V379H396.824V372.164C396.824 371.656 396.749 371.256 396.6 370.963C396.456 370.663 396.245 370.452 395.965 370.328C395.691 370.198 395.35 370.133 394.939 370.133C394.536 370.133 394.174 370.217 393.855 370.387C393.536 370.556 393.266 370.787 393.045 371.08C392.83 371.373 392.664 371.712 392.547 372.096C392.43 372.48 392.371 372.89 392.371 373.326ZM406.434 368.434V370.152H400.477V368.434H406.434ZM402.195 365.846H404.549V376.08C404.549 376.406 404.594 376.656 404.686 376.832C404.783 377.001 404.917 377.115 405.086 377.174C405.255 377.232 405.454 377.262 405.682 377.262C405.844 377.262 406.001 377.252 406.15 377.232C406.3 377.213 406.421 377.193 406.512 377.174L406.521 378.971C406.326 379.029 406.098 379.081 405.838 379.127C405.584 379.173 405.291 379.195 404.959 379.195C404.419 379.195 403.94 379.101 403.523 378.912C403.107 378.717 402.781 378.401 402.547 377.965C402.312 377.529 402.195 376.949 402.195 376.227V365.846ZM412.908 379.195C412.127 379.195 411.421 379.068 410.789 378.814C410.164 378.554 409.63 378.193 409.188 377.73C408.751 377.268 408.416 376.725 408.182 376.1C407.947 375.475 407.83 374.801 407.83 374.078V373.688C407.83 372.861 407.951 372.112 408.191 371.441C408.432 370.771 408.768 370.198 409.197 369.723C409.627 369.241 410.135 368.873 410.721 368.619C411.307 368.365 411.941 368.238 412.625 368.238C413.38 368.238 414.041 368.365 414.607 368.619C415.174 368.873 415.643 369.231 416.014 369.693C416.391 370.149 416.671 370.693 416.854 371.324C417.042 371.956 417.137 372.652 417.137 373.414V374.42H408.973V372.73H414.812V372.545C414.799 372.122 414.715 371.725 414.559 371.354C414.409 370.982 414.178 370.683 413.865 370.455C413.553 370.227 413.136 370.113 412.615 370.113C412.225 370.113 411.876 370.198 411.57 370.367C411.271 370.53 411.02 370.768 410.818 371.08C410.617 371.393 410.46 371.77 410.35 372.213C410.245 372.649 410.193 373.141 410.193 373.688V374.078C410.193 374.54 410.255 374.97 410.379 375.367C410.509 375.758 410.698 376.1 410.945 376.393C411.193 376.686 411.492 376.917 411.844 377.086C412.195 377.249 412.596 377.33 413.045 377.33C413.611 377.33 414.116 377.216 414.559 376.988C415.001 376.76 415.385 376.438 415.711 376.021L416.951 377.223C416.723 377.555 416.427 377.874 416.062 378.18C415.698 378.479 415.252 378.723 414.725 378.912C414.204 379.101 413.598 379.195 412.908 379.195ZM421.492 364V379H419.129V364H421.492ZM426.59 364V379H424.227V364H426.59ZM431.688 368.434V379H429.324V368.434H431.688ZM429.168 365.66C429.168 365.302 429.285 365.006 429.52 364.771C429.76 364.531 430.092 364.41 430.516 364.41C430.932 364.41 431.261 364.531 431.502 364.771C431.743 365.006 431.863 365.302 431.863 365.66C431.863 366.012 431.743 366.305 431.502 366.539C431.261 366.773 430.932 366.891 430.516 366.891C430.092 366.891 429.76 366.773 429.52 366.539C429.285 366.305 429.168 366.012 429.168 365.66ZM441.033 368.434H443.172V378.707C443.172 379.658 442.97 380.465 442.566 381.129C442.163 381.793 441.6 382.298 440.877 382.643C440.154 382.994 439.318 383.17 438.367 383.17C437.964 383.17 437.514 383.111 437.02 382.994C436.531 382.877 436.056 382.688 435.594 382.428C435.138 382.174 434.757 381.839 434.451 381.422L435.555 380.035C435.932 380.484 436.349 380.813 436.805 381.021C437.26 381.23 437.739 381.334 438.24 381.334C438.781 381.334 439.24 381.233 439.617 381.031C440.001 380.836 440.298 380.546 440.506 380.162C440.714 379.778 440.818 379.309 440.818 378.756V370.826L441.033 368.434ZM433.855 373.834V373.629C433.855 372.828 433.953 372.099 434.148 371.441C434.344 370.777 434.624 370.208 434.988 369.732C435.353 369.251 435.796 368.883 436.316 368.629C436.837 368.368 437.426 368.238 438.084 368.238C438.768 368.238 439.35 368.362 439.832 368.609C440.32 368.857 440.727 369.212 441.053 369.674C441.378 370.13 441.632 370.676 441.814 371.314C442.003 371.946 442.143 372.649 442.234 373.424V374.078C442.15 374.833 442.007 375.523 441.805 376.148C441.603 376.773 441.336 377.314 441.004 377.77C440.672 378.225 440.262 378.577 439.773 378.824C439.292 379.072 438.722 379.195 438.064 379.195C437.42 379.195 436.837 379.062 436.316 378.795C435.802 378.528 435.359 378.154 434.988 377.672C434.624 377.19 434.344 376.624 434.148 375.973C433.953 375.315 433.855 374.602 433.855 373.834ZM436.209 373.629V373.834C436.209 374.316 436.255 374.765 436.346 375.182C436.443 375.598 436.59 375.966 436.785 376.285C436.987 376.598 437.241 376.845 437.547 377.027C437.859 377.203 438.227 377.291 438.65 377.291C439.204 377.291 439.656 377.174 440.008 376.939C440.366 376.705 440.639 376.389 440.828 375.992C441.023 375.589 441.16 375.139 441.238 374.645V372.877C441.199 372.493 441.118 372.135 440.994 371.803C440.877 371.471 440.717 371.181 440.516 370.934C440.314 370.68 440.06 370.484 439.754 370.348C439.448 370.204 439.087 370.133 438.67 370.133C438.247 370.133 437.879 370.224 437.566 370.406C437.254 370.589 436.997 370.839 436.795 371.158C436.6 371.477 436.453 371.848 436.355 372.271C436.258 372.695 436.209 373.147 436.209 373.629ZM450.271 379.195C449.49 379.195 448.784 379.068 448.152 378.814C447.527 378.554 446.993 378.193 446.551 377.73C446.115 377.268 445.779 376.725 445.545 376.1C445.311 375.475 445.193 374.801 445.193 374.078V373.688C445.193 372.861 445.314 372.112 445.555 371.441C445.796 370.771 446.131 370.198 446.561 369.723C446.99 369.241 447.498 368.873 448.084 368.619C448.67 368.365 449.305 368.238 449.988 368.238C450.743 368.238 451.404 368.365 451.971 368.619C452.537 368.873 453.006 369.231 453.377 369.693C453.755 370.149 454.035 370.693 454.217 371.324C454.406 371.956 454.5 372.652 454.5 373.414V374.42H446.336V372.73H452.176V372.545C452.163 372.122 452.078 371.725 451.922 371.354C451.772 370.982 451.541 370.683 451.229 370.455C450.916 370.227 450.499 370.113 449.979 370.113C449.588 370.113 449.24 370.198 448.934 370.367C448.634 370.53 448.383 370.768 448.182 371.08C447.98 371.393 447.824 371.77 447.713 372.213C447.609 372.649 447.557 373.141 447.557 373.688V374.078C447.557 374.54 447.618 374.97 447.742 375.367C447.872 375.758 448.061 376.1 448.309 376.393C448.556 376.686 448.855 376.917 449.207 377.086C449.559 377.249 449.959 377.33 450.408 377.33C450.975 377.33 451.479 377.216 451.922 376.988C452.365 376.76 452.749 376.438 453.074 376.021L454.314 377.223C454.087 377.555 453.79 377.874 453.426 378.18C453.061 378.479 452.615 378.723 452.088 378.912C451.567 379.101 450.962 379.195 450.271 379.195ZM458.67 370.689V379H456.316V368.434H458.533L458.67 370.689ZM458.25 373.326L457.488 373.316C457.495 372.568 457.599 371.881 457.801 371.256C458.009 370.631 458.296 370.094 458.66 369.645C459.031 369.195 459.474 368.85 459.988 368.609C460.503 368.362 461.076 368.238 461.707 368.238C462.215 368.238 462.674 368.31 463.084 368.453C463.501 368.59 463.855 368.814 464.148 369.127C464.448 369.439 464.676 369.846 464.832 370.348C464.988 370.842 465.066 371.451 465.066 372.174V379H462.703V372.164C462.703 371.656 462.628 371.256 462.479 370.963C462.335 370.663 462.124 370.452 461.844 370.328C461.57 370.198 461.229 370.133 460.818 370.133C460.415 370.133 460.053 370.217 459.734 370.387C459.415 370.556 459.145 370.787 458.924 371.08C458.709 371.373 458.543 371.712 458.426 372.096C458.309 372.48 458.25 372.89 458.25 373.326ZM471.785 377.32C472.169 377.32 472.514 377.245 472.82 377.096C473.133 376.939 473.383 376.725 473.572 376.451C473.768 376.178 473.875 375.862 473.895 375.504H476.111C476.098 376.188 475.896 376.809 475.506 377.369C475.115 377.929 474.598 378.375 473.953 378.707C473.309 379.033 472.596 379.195 471.814 379.195C471.007 379.195 470.304 379.059 469.705 378.785C469.106 378.505 468.608 378.121 468.211 377.633C467.814 377.145 467.514 376.581 467.312 375.943C467.117 375.305 467.02 374.622 467.02 373.893V373.551C467.02 372.822 467.117 372.138 467.312 371.5C467.514 370.855 467.814 370.289 468.211 369.801C468.608 369.312 469.106 368.932 469.705 368.658C470.304 368.378 471.004 368.238 471.805 368.238C472.651 368.238 473.393 368.408 474.031 368.746C474.669 369.078 475.171 369.544 475.535 370.143C475.906 370.735 476.098 371.425 476.111 372.213H473.895C473.875 371.822 473.777 371.471 473.602 371.158C473.432 370.839 473.191 370.585 472.879 370.396C472.573 370.208 472.205 370.113 471.775 370.113C471.3 370.113 470.906 370.211 470.594 370.406C470.281 370.595 470.037 370.855 469.861 371.188C469.686 371.513 469.559 371.881 469.48 372.291C469.409 372.695 469.373 373.115 469.373 373.551V373.893C469.373 374.329 469.409 374.752 469.48 375.162C469.552 375.572 469.676 375.94 469.852 376.266C470.034 376.585 470.281 376.842 470.594 377.037C470.906 377.226 471.303 377.32 471.785 377.32ZM482.576 379.195C481.795 379.195 481.089 379.068 480.457 378.814C479.832 378.554 479.298 378.193 478.855 377.73C478.419 377.268 478.084 376.725 477.85 376.1C477.615 375.475 477.498 374.801 477.498 374.078V373.688C477.498 372.861 477.618 372.112 477.859 371.441C478.1 370.771 478.436 370.198 478.865 369.723C479.295 369.241 479.803 368.873 480.389 368.619C480.975 368.365 481.609 368.238 482.293 368.238C483.048 368.238 483.709 368.365 484.275 368.619C484.842 368.873 485.311 369.231 485.682 369.693C486.059 370.149 486.339 370.693 486.521 371.324C486.71 371.956 486.805 372.652 486.805 373.414V374.42H478.641V372.73H484.48V372.545C484.467 372.122 484.383 371.725 484.227 371.354C484.077 370.982 483.846 370.683 483.533 370.455C483.221 370.227 482.804 370.113 482.283 370.113C481.893 370.113 481.544 370.198 481.238 370.367C480.939 370.53 480.688 370.768 480.486 371.08C480.285 371.393 480.128 371.77 480.018 372.213C479.913 372.649 479.861 373.141 479.861 373.688V374.078C479.861 374.54 479.923 374.97 480.047 375.367C480.177 375.758 480.366 376.1 480.613 376.393C480.861 376.686 481.16 376.917 481.512 377.086C481.863 377.249 482.264 377.33 482.713 377.33C483.279 377.33 483.784 377.216 484.227 376.988C484.669 376.76 485.053 376.438 485.379 376.021L486.619 377.223C486.391 377.555 486.095 377.874 485.73 378.18C485.366 378.479 484.92 378.723 484.393 378.912C483.872 379.101 483.266 379.195 482.576 379.195ZM342.986 394.781H345.174L349.285 405.748L353.387 394.781H355.574L350.145 409H348.406L342.986 394.781ZM341.99 394.781H344.07L344.432 404.273V409H341.99V394.781ZM354.49 394.781H356.58V409H354.129V404.273L354.49 394.781ZM358.807 403.834V403.609C358.807 402.848 358.917 402.141 359.139 401.49C359.36 400.833 359.679 400.263 360.096 399.781C360.519 399.293 361.033 398.915 361.639 398.648C362.251 398.375 362.941 398.238 363.709 398.238C364.484 398.238 365.174 398.375 365.779 398.648C366.391 398.915 366.909 399.293 367.332 399.781C367.755 400.263 368.077 400.833 368.299 401.49C368.52 402.141 368.631 402.848 368.631 403.609V403.834C368.631 404.596 368.52 405.302 368.299 405.953C368.077 406.604 367.755 407.174 367.332 407.662C366.909 408.144 366.395 408.521 365.789 408.795C365.184 409.062 364.497 409.195 363.729 409.195C362.954 409.195 362.26 409.062 361.648 408.795C361.043 408.521 360.529 408.144 360.105 407.662C359.682 407.174 359.36 406.604 359.139 405.953C358.917 405.302 358.807 404.596 358.807 403.834ZM361.16 403.609V403.834C361.16 404.309 361.209 404.758 361.307 405.182C361.404 405.605 361.557 405.976 361.766 406.295C361.974 406.614 362.241 406.865 362.566 407.047C362.892 407.229 363.279 407.32 363.729 407.32C364.165 407.32 364.542 407.229 364.861 407.047C365.187 406.865 365.454 406.614 365.662 406.295C365.87 405.976 366.023 405.605 366.121 405.182C366.225 404.758 366.277 404.309 366.277 403.834V403.609C366.277 403.141 366.225 402.698 366.121 402.281C366.023 401.858 365.867 401.484 365.652 401.158C365.444 400.833 365.177 400.579 364.852 400.396C364.533 400.208 364.152 400.113 363.709 400.113C363.266 400.113 362.882 400.208 362.557 400.396C362.238 400.579 361.974 400.833 361.766 401.158C361.557 401.484 361.404 401.858 361.307 402.281C361.209 402.698 361.16 403.141 361.16 403.609ZM377.049 406.812V394H379.412V409H377.273L377.049 406.812ZM370.174 403.834V403.629C370.174 402.828 370.268 402.099 370.457 401.441C370.646 400.777 370.919 400.208 371.277 399.732C371.635 399.251 372.072 398.883 372.586 398.629C373.1 398.368 373.68 398.238 374.324 398.238C374.962 398.238 375.522 398.362 376.004 398.609C376.486 398.857 376.896 399.212 377.234 399.674C377.573 400.13 377.843 400.676 378.045 401.314C378.247 401.946 378.39 402.649 378.475 403.424V404.078C378.39 404.833 378.247 405.523 378.045 406.148C377.843 406.773 377.573 407.314 377.234 407.77C376.896 408.225 376.482 408.577 375.994 408.824C375.512 409.072 374.949 409.195 374.305 409.195C373.667 409.195 373.09 409.062 372.576 408.795C372.068 408.528 371.635 408.154 371.277 407.672C370.919 407.19 370.646 406.624 370.457 405.973C370.268 405.315 370.174 404.602 370.174 403.834ZM372.527 403.629V403.834C372.527 404.316 372.57 404.765 372.654 405.182C372.745 405.598 372.885 405.966 373.074 406.285C373.263 406.598 373.507 406.845 373.807 407.027C374.113 407.203 374.477 407.291 374.9 407.291C375.434 407.291 375.874 407.174 376.219 406.939C376.564 406.705 376.834 406.389 377.029 405.992C377.231 405.589 377.368 405.139 377.439 404.645V402.877C377.4 402.493 377.319 402.135 377.195 401.803C377.078 401.471 376.919 401.181 376.717 400.934C376.515 400.68 376.264 400.484 375.965 400.348C375.672 400.204 375.324 400.133 374.92 400.133C374.49 400.133 374.126 400.224 373.826 400.406C373.527 400.589 373.279 400.839 373.084 401.158C372.895 401.477 372.755 401.848 372.664 402.271C372.573 402.695 372.527 403.147 372.527 403.629ZM386.531 409.195C385.75 409.195 385.044 409.068 384.412 408.814C383.787 408.554 383.253 408.193 382.811 407.73C382.374 407.268 382.039 406.725 381.805 406.1C381.57 405.475 381.453 404.801 381.453 404.078V403.688C381.453 402.861 381.574 402.112 381.814 401.441C382.055 400.771 382.391 400.198 382.82 399.723C383.25 399.241 383.758 398.873 384.344 398.619C384.93 398.365 385.564 398.238 386.248 398.238C387.003 398.238 387.664 398.365 388.23 398.619C388.797 398.873 389.266 399.231 389.637 399.693C390.014 400.149 390.294 400.693 390.477 401.324C390.665 401.956 390.76 402.652 390.76 403.414V404.42H382.596V402.73H388.436V402.545C388.423 402.122 388.338 401.725 388.182 401.354C388.032 400.982 387.801 400.683 387.488 400.455C387.176 400.227 386.759 400.113 386.238 400.113C385.848 400.113 385.499 400.198 385.193 400.367C384.894 400.53 384.643 400.768 384.441 401.08C384.24 401.393 384.083 401.77 383.973 402.213C383.868 402.649 383.816 403.141 383.816 403.688V404.078C383.816 404.54 383.878 404.97 384.002 405.367C384.132 405.758 384.321 406.1 384.568 406.393C384.816 406.686 385.115 406.917 385.467 407.086C385.818 407.249 386.219 407.33 386.668 407.33C387.234 407.33 387.739 407.216 388.182 406.988C388.624 406.76 389.008 406.438 389.334 406.021L390.574 407.223C390.346 407.555 390.05 407.874 389.686 408.18C389.321 408.479 388.875 408.723 388.348 408.912C387.827 409.101 387.221 409.195 386.531 409.195ZM395.115 394V409H392.752V394H395.115ZM412.215 407.057V409H404.666V407.057H412.215ZM405.359 394.781V409H402.908V394.781H405.359ZM411.229 400.719V402.633H404.666V400.719H411.229ZM412.166 394.781V396.734H404.666V394.781H412.166ZM416.316 400.689V409H413.963V398.434H416.18L416.316 400.689ZM415.896 403.326L415.135 403.316C415.141 402.568 415.245 401.881 415.447 401.256C415.656 400.631 415.942 400.094 416.307 399.645C416.678 399.195 417.12 398.85 417.635 398.609C418.149 398.362 418.722 398.238 419.354 398.238C419.861 398.238 420.32 398.31 420.73 398.453C421.147 398.59 421.502 398.814 421.795 399.127C422.094 399.439 422.322 399.846 422.479 400.348C422.635 400.842 422.713 401.451 422.713 402.174V409H420.35V402.164C420.35 401.656 420.275 401.256 420.125 400.963C419.982 400.663 419.77 400.452 419.49 400.328C419.217 400.198 418.875 400.133 418.465 400.133C418.061 400.133 417.7 400.217 417.381 400.387C417.062 400.556 416.792 400.787 416.57 401.08C416.355 401.373 416.189 401.712 416.072 402.096C415.955 402.48 415.896 402.89 415.896 403.326ZM431.883 398.434H434.021V408.707C434.021 409.658 433.82 410.465 433.416 411.129C433.012 411.793 432.449 412.298 431.727 412.643C431.004 412.994 430.167 413.17 429.217 413.17C428.813 413.17 428.364 413.111 427.869 412.994C427.381 412.877 426.906 412.688 426.443 412.428C425.988 412.174 425.607 411.839 425.301 411.422L426.404 410.035C426.782 410.484 427.199 410.813 427.654 411.021C428.11 411.23 428.589 411.334 429.09 411.334C429.63 411.334 430.089 411.233 430.467 411.031C430.851 410.836 431.147 410.546 431.355 410.162C431.564 409.778 431.668 409.309 431.668 408.756V400.826L431.883 398.434ZM424.705 403.834V403.629C424.705 402.828 424.803 402.099 424.998 401.441C425.193 400.777 425.473 400.208 425.838 399.732C426.202 399.251 426.645 398.883 427.166 398.629C427.687 398.368 428.276 398.238 428.934 398.238C429.617 398.238 430.2 398.362 430.682 398.609C431.17 398.857 431.577 399.212 431.902 399.674C432.228 400.13 432.482 400.676 432.664 401.314C432.853 401.946 432.993 402.649 433.084 403.424V404.078C432.999 404.833 432.856 405.523 432.654 406.148C432.452 406.773 432.186 407.314 431.854 407.77C431.521 408.225 431.111 408.577 430.623 408.824C430.141 409.072 429.572 409.195 428.914 409.195C428.27 409.195 427.687 409.062 427.166 408.795C426.652 408.528 426.209 408.154 425.838 407.672C425.473 407.19 425.193 406.624 424.998 405.973C424.803 405.315 424.705 404.602 424.705 403.834ZM427.059 403.629V403.834C427.059 404.316 427.104 404.765 427.195 405.182C427.293 405.598 427.439 405.966 427.635 406.285C427.837 406.598 428.09 406.845 428.396 407.027C428.709 407.203 429.077 407.291 429.5 407.291C430.053 407.291 430.506 407.174 430.857 406.939C431.215 406.705 431.489 406.389 431.678 405.992C431.873 405.589 432.01 405.139 432.088 404.645V402.877C432.049 402.493 431.967 402.135 431.844 401.803C431.727 401.471 431.567 401.181 431.365 400.934C431.163 400.68 430.91 400.484 430.604 400.348C430.298 400.204 429.936 400.133 429.52 400.133C429.096 400.133 428.729 400.224 428.416 400.406C428.104 400.589 427.846 400.839 427.645 401.158C427.449 401.477 427.303 401.848 427.205 402.271C427.107 402.695 427.059 403.147 427.059 403.629ZM438.982 398.434V409H436.619V398.434H438.982ZM436.463 395.66C436.463 395.302 436.58 395.006 436.814 394.771C437.055 394.531 437.387 394.41 437.811 394.41C438.227 394.41 438.556 394.531 438.797 394.771C439.038 395.006 439.158 395.302 439.158 395.66C439.158 396.012 439.038 396.305 438.797 396.539C438.556 396.773 438.227 396.891 437.811 396.891C437.387 396.891 437.055 396.773 436.814 396.539C436.58 396.305 436.463 396.012 436.463 395.66ZM443.895 400.689V409H441.541V398.434H443.758L443.895 400.689ZM443.475 403.326L442.713 403.316C442.719 402.568 442.824 401.881 443.025 401.256C443.234 400.631 443.52 400.094 443.885 399.645C444.256 399.195 444.699 398.85 445.213 398.609C445.727 398.362 446.3 398.238 446.932 398.238C447.439 398.238 447.898 398.31 448.309 398.453C448.725 398.59 449.08 398.814 449.373 399.127C449.673 399.439 449.9 399.846 450.057 400.348C450.213 400.842 450.291 401.451 450.291 402.174V409H447.928V402.164C447.928 401.656 447.853 401.256 447.703 400.963C447.56 400.663 447.348 400.452 447.068 400.328C446.795 400.198 446.453 400.133 446.043 400.133C445.639 400.133 445.278 400.217 444.959 400.387C444.64 400.556 444.37 400.787 444.148 401.08C443.934 401.373 443.768 401.712 443.65 402.096C443.533 402.48 443.475 402.89 443.475 403.326ZM457.352 409.195C456.57 409.195 455.864 409.068 455.232 408.814C454.607 408.554 454.074 408.193 453.631 407.73C453.195 407.268 452.859 406.725 452.625 406.1C452.391 405.475 452.273 404.801 452.273 404.078V403.688C452.273 402.861 452.394 402.112 452.635 401.441C452.876 400.771 453.211 400.198 453.641 399.723C454.07 399.241 454.578 398.873 455.164 398.619C455.75 398.365 456.385 398.238 457.068 398.238C457.824 398.238 458.484 398.365 459.051 398.619C459.617 398.873 460.086 399.231 460.457 399.693C460.835 400.149 461.115 400.693 461.297 401.324C461.486 401.956 461.58 402.652 461.58 403.414V404.42H453.416V402.73H459.256V402.545C459.243 402.122 459.158 401.725 459.002 401.354C458.852 400.982 458.621 400.683 458.309 400.455C457.996 400.227 457.579 400.113 457.059 400.113C456.668 400.113 456.32 400.198 456.014 400.367C455.714 400.53 455.464 400.768 455.262 401.08C455.06 401.393 454.904 401.77 454.793 402.213C454.689 402.649 454.637 403.141 454.637 403.688V404.078C454.637 404.54 454.699 404.97 454.822 405.367C454.952 405.758 455.141 406.1 455.389 406.393C455.636 406.686 455.936 406.917 456.287 407.086C456.639 407.249 457.039 407.33 457.488 407.33C458.055 407.33 458.559 407.216 459.002 406.988C459.445 406.76 459.829 406.438 460.154 406.021L461.395 407.223C461.167 407.555 460.87 407.874 460.506 408.18C460.141 408.479 459.695 408.723 459.168 408.912C458.647 409.101 458.042 409.195 457.352 409.195Z" fill="#0023D2"/>
<rect opacity="0.1" width="147.506" height="147.506" rx="9.28042" transform="matrix(0.83205 -0.5547 0.830139 0.557556 277.953 292.821)" fill="#0129FF"/>
<path fill-rule="evenodd" clip-rule="evenodd" d="M515.563 216.921C515.64 217.571 515.64 218.225 515.562 218.875C515.64 219.525 515.64 220.179 515.562 220.83C515.64 221.48 515.64 222.134 515.563 222.784C515.64 223.434 515.64 224.087 515.563 224.737C515.64 225.388 515.64 226.042 515.562 226.692C515.639 227.342 515.64 227.995 515.563 228.645C515.64 229.295 515.639 229.948 515.562 230.597C515.64 231.248 515.64 231.901 515.563 232.551C515.64 233.202 515.64 233.857 515.562 234.508C515.655 235.29 515.637 236.078 515.506 236.858C515.543 237.377 515.53 237.896 515.469 238.414C515.546 239.064 515.546 239.718 515.469 240.368C515.546 241.018 515.546 241.67 515.469 242.32C515.546 242.97 515.546 243.623 515.469 244.273C515.546 244.924 515.546 245.578 515.469 246.228C515.88 249.697 514.1 253.257 510.131 255.903L413.408 320.385C406.226 325.173 394.595 325.153 387.429 320.34L290.928 255.526C286.979 252.874 285.21 249.32 285.62 245.862C285.543 245.211 285.543 244.557 285.62 243.907C285.543 243.257 285.543 242.603 285.62 241.953C285.543 241.304 285.543 240.651 285.62 240.001C285.543 239.351 285.543 238.697 285.62 238.047C285.528 237.265 285.546 236.478 285.676 235.699C285.64 235.179 285.653 234.659 285.714 234.141C285.637 233.49 285.637 232.836 285.714 232.185C285.637 231.535 285.637 230.881 285.714 230.231C285.637 229.581 285.637 228.928 285.714 228.279C285.637 227.629 285.637 226.975 285.714 226.326C285.637 225.675 285.637 225.021 285.714 224.37C285.637 223.72 285.637 223.067 285.714 222.417C285.637 221.767 285.637 221.113 285.714 220.463C285.637 219.813 285.637 219.159 285.714 218.508C285.637 217.858 285.637 217.204 285.714 216.554C285.303 213.086 287.083 209.526 291.052 206.88L387.775 142.398C394.957 137.61 406.588 137.63 413.754 142.443L510.255 207.257C514.203 209.909 515.972 213.463 515.563 216.921Z" fill="url(#paint36_linear_16389_35435)"/>
<rect width="147.506" height="147.506" rx="15.6298" transform="matrix(0.83205 -0.5547 0.830139 0.557556 277.875 215.643)" fill="#DEE3FF" stroke="#DEE3FF" stroke-width="0.4"/>
<path fill-rule="evenodd" clip-rule="evenodd" d="M515.563 179.773C515.64 180.423 515.64 181.077 515.562 181.727C515.64 182.378 515.64 183.032 515.562 183.682C515.64 184.333 515.64 184.986 515.563 185.636C515.64 186.286 515.64 186.94 515.563 187.59C515.64 188.24 515.64 188.894 515.562 189.545C515.639 190.195 515.64 190.848 515.563 191.498C515.64 192.147 515.639 192.8 515.562 193.45C515.64 194.1 515.64 194.754 515.563 195.404C515.64 196.055 515.64 196.709 515.562 197.36C515.655 198.143 515.637 198.93 515.506 199.711C515.543 200.229 515.53 200.749 515.469 201.266C515.546 201.917 515.546 202.57 515.469 203.22C515.879 206.688 514.1 210.248 510.131 212.894L413.408 277.376C406.226 282.164 394.595 282.144 387.429 277.331L290.928 212.517C286.98 209.865 285.211 206.312 285.62 202.854C285.543 202.203 285.543 201.55 285.62 200.9C285.528 200.118 285.546 199.331 285.676 198.551C285.64 198.032 285.653 197.512 285.714 196.993C285.637 196.342 285.637 195.688 285.714 195.037C285.637 194.387 285.637 193.733 285.714 193.083C285.637 192.434 285.637 191.781 285.714 191.131C285.637 190.481 285.637 189.828 285.714 189.178C285.637 188.527 285.637 187.873 285.714 187.223C285.637 186.573 285.637 185.92 285.714 185.27C285.637 184.619 285.637 183.966 285.714 183.316C285.637 182.665 285.637 182.011 285.714 181.361C285.637 180.71 285.637 180.057 285.714 179.407C285.303 175.938 287.083 172.378 291.052 169.733L387.775 105.251C394.957 100.463 406.588 100.483 413.754 105.296L510.255 170.109C514.203 172.761 515.972 176.315 515.563 179.773Z" fill="url(#paint37_linear_16389_35435)"/>
<rect width="147.506" height="147.506" rx="15.6298" transform="matrix(0.83205 -0.5547 0.830139 0.557556 277.875 178.465)" fill="#DEE3FF" stroke="#DEE3FF" stroke-width="0.4"/>
<path fill-rule="evenodd" clip-rule="evenodd" d="M515.563 136.921C515.64 137.571 515.64 138.225 515.562 138.875C515.64 139.525 515.64 140.179 515.562 140.83C515.64 141.48 515.64 142.134 515.563 142.784C515.64 143.434 515.64 144.087 515.563 144.737C515.64 145.388 515.64 146.042 515.562 146.692C515.639 147.342 515.64 147.995 515.563 148.645C515.64 149.295 515.639 149.948 515.562 150.597C515.64 151.248 515.64 151.901 515.563 152.551C515.64 153.202 515.64 153.857 515.562 154.508C515.655 155.29 515.637 156.078 515.506 156.858C515.543 157.377 515.53 157.896 515.469 158.414C515.546 159.064 515.546 159.718 515.469 160.368C515.546 161.018 515.546 161.67 515.469 162.32C515.546 162.97 515.546 163.623 515.469 164.273C515.546 164.924 515.546 165.578 515.469 166.228C515.88 169.697 514.1 173.257 510.131 175.903L413.408 240.385C406.226 245.173 394.595 245.153 387.429 240.34L290.928 175.526C286.979 172.874 285.21 169.32 285.62 165.862C285.543 165.211 285.543 164.557 285.62 163.907C285.543 163.257 285.543 162.603 285.62 161.953C285.543 161.304 285.543 160.651 285.62 160.001C285.543 159.351 285.543 158.697 285.62 158.047C285.528 157.265 285.546 156.478 285.676 155.699C285.64 155.179 285.653 154.659 285.714 154.141C285.637 153.49 285.637 152.836 285.714 152.185C285.637 151.535 285.637 150.881 285.714 150.231C285.637 149.581 285.637 148.928 285.714 148.279C285.637 147.629 285.637 146.975 285.714 146.326C285.637 145.675 285.637 145.021 285.714 144.37C285.637 143.72 285.637 143.067 285.714 142.417C285.637 141.767 285.637 141.113 285.714 140.463C285.637 139.813 285.637 139.159 285.714 138.508C285.637 137.858 285.637 137.204 285.714 136.554C285.303 133.086 287.083 129.526 291.052 126.88L387.775 62.3984C394.957 57.6102 406.588 57.6302 413.754 62.4431L510.255 127.257C514.203 129.909 515.972 133.463 515.563 136.921Z" fill="url(#paint38_linear_16389_35435)"/>
<rect width="147.506" height="147.506" rx="15.6298" transform="matrix(0.83205 -0.5547 0.830139 0.557556 277.875 135.994)" fill="#0023D2"/>
<rect width="147.506" height="147.506" rx="15.6298" transform="matrix(0.83205 -0.5547 0.830139 0.557556 277.875 135.817)" fill="#0023D2"/>
<path d="M438.715 119.653L419.779 112.178L400.843 104.702C400.309 104.483 399.598 104.484 399.064 104.705L361.209 119.811C360.64 120.032 360.321 120.424 360.321 120.864L360.337 150.922C360.338 151.362 360.695 151.753 361.228 151.972L399.136 166.924C399.421 167.021 399.705 167.094 400.025 167.093C400.345 167.093 400.63 167.044 400.914 166.921L438.77 151.815C439.303 151.594 439.658 151.202 439.657 150.761L439.606 120.704C439.605 120.263 439.284 119.873 438.715 119.653ZM420.72 142.601L420.697 128.978L436.052 122.837L436.097 148.664L420.72 142.601ZM379.258 129.049L379.282 142.672L363.891 148.813L363.882 122.961L379.258 129.049ZM434.27 120.713L382.836 141.247L382.815 129.043L418.894 114.649L434.27 120.713ZM399.958 107.173L415.334 113.237L381.033 126.918L365.657 120.831L399.958 107.173ZM365.673 150.913L417.142 130.378L417.163 142.582L381.049 157.001L365.673 150.913ZM400.021 164.477L384.609 158.389L418.91 144.707L434.322 150.795L400.021 164.477Z" fill="white"/>
<defs>
<linearGradient id="paint0_linear_16389_35435" x1="601.873" y1="134.669" x2="354.609" y2="505.566" gradientUnits="userSpaceOnUse">
<stop stop-color="#0129FF" stop-opacity="0"/>
<stop offset="0.286645" stop-color="#0129FF"/>
<stop offset="0.733985" stop-color="#0129FF"/>
<stop offset="1" stop-color="#0129FF" stop-opacity="0"/>
</linearGradient>
<linearGradient id="paint1_linear_16389_35435" x1="601.873" y1="134.669" x2="354.609" y2="505.566" gradientUnits="userSpaceOnUse">
<stop stop-color="#0129FF" stop-opacity="0"/>
<stop offset="0.286645" stop-color="#0129FF"/>
<stop offset="0.733985" stop-color="#0129FF"/>
<stop offset="1" stop-color="#0129FF" stop-opacity="0"/>
</linearGradient>
<linearGradient id="paint2_linear_16389_35435" x1="601.873" y1="134.669" x2="354.609" y2="505.566" gradientUnits="userSpaceOnUse">
<stop stop-color="#0129FF" stop-opacity="0"/>
<stop offset="0.286645" stop-color="#0129FF"/>
<stop offset="0.733985" stop-color="#0129FF"/>
<stop offset="1" stop-color="#0129FF" stop-opacity="0"/>
</linearGradient>
<linearGradient id="paint3_linear_16389_35435" x1="601.873" y1="134.669" x2="354.609" y2="505.566" gradientUnits="userSpaceOnUse">
<stop stop-color="#0129FF" stop-opacity="0"/>
<stop offset="0.286645" stop-color="#0129FF"/>
<stop offset="0.733985" stop-color="#0129FF"/>
<stop offset="1" stop-color="#0129FF" stop-opacity="0"/>
</linearGradient>
<linearGradient id="paint4_linear_16389_35435" x1="601.873" y1="134.669" x2="354.609" y2="505.566" gradientUnits="userSpaceOnUse">
<stop stop-color="#0129FF" stop-opacity="0"/>
<stop offset="0.286645" stop-color="#0129FF"/>
<stop offset="0.733985" stop-color="#0129FF"/>
<stop offset="1" stop-color="#0129FF" stop-opacity="0"/>
</linearGradient>
<linearGradient id="paint5_linear_16389_35435" x1="601.873" y1="134.669" x2="354.609" y2="505.566" gradientUnits="userSpaceOnUse">
<stop stop-color="#0129FF" stop-opacity="0"/>
<stop offset="0.286645" stop-color="#0129FF"/>
<stop offset="0.733985" stop-color="#0129FF"/>
<stop offset="1" stop-color="#0129FF" stop-opacity="0"/>
</linearGradient>
<linearGradient id="paint6_linear_16389_35435" x1="601.873" y1="134.669" x2="354.609" y2="505.566" gradientUnits="userSpaceOnUse">
<stop stop-color="#0129FF" stop-opacity="0"/>
<stop offset="0.286645" stop-color="#0129FF"/>
<stop offset="0.733985" stop-color="#0129FF"/>
<stop offset="1" stop-color="#0129FF" stop-opacity="0"/>
</linearGradient>
<linearGradient id="paint7_linear_16389_35435" x1="601.873" y1="134.669" x2="354.609" y2="505.566" gradientUnits="userSpaceOnUse">
<stop stop-color="#0129FF" stop-opacity="0"/>
<stop offset="0.286645" stop-color="#0129FF"/>
<stop offset="0.733985" stop-color="#0129FF"/>
<stop offset="1" stop-color="#0129FF" stop-opacity="0"/>
</linearGradient>
<linearGradient id="paint8_linear_16389_35435" x1="601.873" y1="134.669" x2="354.609" y2="505.566" gradientUnits="userSpaceOnUse">
<stop stop-color="#0129FF" stop-opacity="0"/>
<stop offset="0.286645" stop-color="#0129FF"/>
<stop offset="0.733985" stop-color="#0129FF"/>
<stop offset="1" stop-color="#0129FF" stop-opacity="0"/>
</linearGradient>
<linearGradient id="paint9_linear_16389_35435" x1="601.873" y1="134.669" x2="354.609" y2="505.566" gradientUnits="userSpaceOnUse">
<stop stop-color="#0129FF" stop-opacity="0"/>
<stop offset="0.286645" stop-color="#0129FF"/>
<stop offset="0.733985" stop-color="#0129FF"/>
<stop offset="1" stop-color="#0129FF" stop-opacity="0"/>
</linearGradient>
<linearGradient id="paint10_linear_16389_35435" x1="601.873" y1="134.669" x2="354.609" y2="505.566" gradientUnits="userSpaceOnUse">
<stop stop-color="#0129FF" stop-opacity="0"/>
<stop offset="0.286645" stop-color="#0129FF"/>
<stop offset="0.733985" stop-color="#0129FF"/>
<stop offset="1" stop-color="#0129FF" stop-opacity="0"/>
</linearGradient>
<linearGradient id="paint11_linear_16389_35435" x1="601.873" y1="134.669" x2="354.609" y2="505.566" gradientUnits="userSpaceOnUse">
<stop stop-color="#0129FF" stop-opacity="0"/>
<stop offset="0.286645" stop-color="#0129FF"/>
<stop offset="0.733985" stop-color="#0129FF"/>
<stop offset="1" stop-color="#0129FF" stop-opacity="0"/>
</linearGradient>
<linearGradient id="paint12_linear_16389_35435" x1="601.873" y1="134.669" x2="354.609" y2="505.566" gradientUnits="userSpaceOnUse">
<stop stop-color="#0129FF" stop-opacity="0"/>
<stop offset="0.286645" stop-color="#0129FF"/>
<stop offset="0.733985" stop-color="#0129FF"/>
<stop offset="1" stop-color="#0129FF" stop-opacity="0"/>
</linearGradient>
<linearGradient id="paint13_linear_16389_35435" x1="601.873" y1="134.669" x2="354.609" y2="505.566" gradientUnits="userSpaceOnUse">
<stop stop-color="#0129FF" stop-opacity="0"/>
<stop offset="0.286645" stop-color="#0129FF"/>
<stop offset="0.733985" stop-color="#0129FF"/>
<stop offset="1" stop-color="#0129FF" stop-opacity="0"/>
</linearGradient>
<linearGradient id="paint14_linear_16389_35435" x1="601.873" y1="134.669" x2="354.609" y2="505.566" gradientUnits="userSpaceOnUse">
<stop stop-color="#0129FF" stop-opacity="0"/>
<stop offset="0.286645" stop-color="#0129FF"/>
<stop offset="0.733985" stop-color="#0129FF"/>
<stop offset="1" stop-color="#0129FF" stop-opacity="0"/>
</linearGradient>
<linearGradient id="paint15_linear_16389_35435" x1="601.873" y1="134.669" x2="354.609" y2="505.566" gradientUnits="userSpaceOnUse">
<stop stop-color="#0129FF" stop-opacity="0"/>
<stop offset="0.286645" stop-color="#0129FF"/>
<stop offset="0.733985" stop-color="#0129FF"/>
<stop offset="1" stop-color="#0129FF" stop-opacity="0"/>
</linearGradient>
<linearGradient id="paint16_linear_16389_35435" x1="601.873" y1="134.669" x2="354.609" y2="505.566" gradientUnits="userSpaceOnUse">
<stop stop-color="#0129FF" stop-opacity="0"/>
<stop offset="0.286645" stop-color="#0129FF"/>
<stop offset="0.733985" stop-color="#0129FF"/>
<stop offset="1" stop-color="#0129FF" stop-opacity="0"/>
</linearGradient>
<linearGradient id="paint17_linear_16389_35435" x1="601.873" y1="134.669" x2="354.609" y2="505.566" gradientUnits="userSpaceOnUse">
<stop stop-color="#0129FF" stop-opacity="0"/>
<stop offset="0.286645" stop-color="#0129FF"/>
<stop offset="0.733985" stop-color="#0129FF"/>
<stop offset="1" stop-color="#0129FF" stop-opacity="0"/>
</linearGradient>
<linearGradient id="paint18_linear_16389_35435" x1="599.571" y1="402.85" x2="351.033" y2="32.8052" gradientUnits="userSpaceOnUse">
<stop stop-color="#0129FF" stop-opacity="0"/>
<stop offset="0.311618" stop-color="#0129FF"/>
<stop offset="0.724213" stop-color="#0129FF"/>
<stop offset="1" stop-color="#0129FF" stop-opacity="0"/>
</linearGradient>
<linearGradient id="paint19_linear_16389_35435" x1="599.571" y1="402.85" x2="351.033" y2="32.8052" gradientUnits="userSpaceOnUse">
<stop stop-color="#0129FF" stop-opacity="0"/>
<stop offset="0.311618" stop-color="#0129FF"/>
<stop offset="0.724213" stop-color="#0129FF"/>
<stop offset="1" stop-color="#0129FF" stop-opacity="0"/>
</linearGradient>
<linearGradient id="paint20_linear_16389_35435" x1="599.571" y1="402.85" x2="351.033" y2="32.8052" gradientUnits="userSpaceOnUse">
<stop stop-color="#0129FF" stop-opacity="0"/>
<stop offset="0.311618" stop-color="#0129FF"/>
<stop offset="0.724213" stop-color="#0129FF"/>
<stop offset="1" stop-color="#0129FF" stop-opacity="0"/>
</linearGradient>
<linearGradient id="paint21_linear_16389_35435" x1="599.571" y1="402.85" x2="351.033" y2="32.8052" gradientUnits="userSpaceOnUse">
<stop stop-color="#0129FF" stop-opacity="0"/>
<stop offset="0.311618" stop-color="#0129FF"/>
<stop offset="0.724213" stop-color="#0129FF"/>
<stop offset="1" stop-color="#0129FF" stop-opacity="0"/>
</linearGradient>
<linearGradient id="paint22_linear_16389_35435" x1="599.571" y1="402.85" x2="351.033" y2="32.8052" gradientUnits="userSpaceOnUse">
<stop stop-color="#0129FF" stop-opacity="0"/>
<stop offset="0.311618" stop-color="#0129FF"/>
<stop offset="0.724213" stop-color="#0129FF"/>
<stop offset="1" stop-color="#0129FF" stop-opacity="0"/>
</linearGradient>
<linearGradient id="paint23_linear_16389_35435" x1="599.571" y1="402.85" x2="351.033" y2="32.8052" gradientUnits="userSpaceOnUse">
<stop stop-color="#0129FF" stop-opacity="0"/>
<stop offset="0.311618" stop-color="#0129FF"/>
<stop offset="0.724213" stop-color="#0129FF"/>
<stop offset="1" stop-color="#0129FF" stop-opacity="0"/>
</linearGradient>
<linearGradient id="paint24_linear_16389_35435" x1="599.571" y1="402.85" x2="351.033" y2="32.8052" gradientUnits="userSpaceOnUse">
<stop stop-color="#0129FF" stop-opacity="0"/>
<stop offset="0.311618" stop-color="#0129FF"/>
<stop offset="0.724213" stop-color="#0129FF"/>
<stop offset="1" stop-color="#0129FF" stop-opacity="0"/>
</linearGradient>
<linearGradient id="paint25_linear_16389_35435" x1="599.571" y1="402.85" x2="351.033" y2="32.8052" gradientUnits="userSpaceOnUse">
<stop stop-color="#0129FF" stop-opacity="0"/>
<stop offset="0.311618" stop-color="#0129FF"/>
<stop offset="0.724213" stop-color="#0129FF"/>
<stop offset="1" stop-color="#0129FF" stop-opacity="0"/>
</linearGradient>
<linearGradient id="paint26_linear_16389_35435" x1="599.571" y1="402.85" x2="351.033" y2="32.8052" gradientUnits="userSpaceOnUse">
<stop stop-color="#0129FF" stop-opacity="0"/>
<stop offset="0.311618" stop-color="#0129FF"/>
<stop offset="0.724213" stop-color="#0129FF"/>
<stop offset="1" stop-color="#0129FF" stop-opacity="0"/>
</linearGradient>
<linearGradient id="paint27_linear_16389_35435" x1="599.571" y1="402.85" x2="351.033" y2="32.8052" gradientUnits="userSpaceOnUse">
<stop stop-color="#0129FF" stop-opacity="0"/>
<stop offset="0.311618" stop-color="#0129FF"/>
<stop offset="0.724213" stop-color="#0129FF"/>
<stop offset="1" stop-color="#0129FF" stop-opacity="0"/>
</linearGradient>
<linearGradient id="paint28_linear_16389_35435" x1="599.571" y1="402.85" x2="351.033" y2="32.8052" gradientUnits="userSpaceOnUse">
<stop stop-color="#0129FF" stop-opacity="0"/>
<stop offset="0.311618" stop-color="#0129FF"/>
<stop offset="0.724213" stop-color="#0129FF"/>
<stop offset="1" stop-color="#0129FF" stop-opacity="0"/>
</linearGradient>
<linearGradient id="paint29_linear_16389_35435" x1="599.571" y1="402.85" x2="351.033" y2="32.8052" gradientUnits="userSpaceOnUse">
<stop stop-color="#0129FF" stop-opacity="0"/>
<stop offset="0.311618" stop-color="#0129FF"/>
<stop offset="0.724213" stop-color="#0129FF"/>
<stop offset="1" stop-color="#0129FF" stop-opacity="0"/>
</linearGradient>
<linearGradient id="paint30_linear_16389_35435" x1="599.571" y1="402.85" x2="351.033" y2="32.8052" gradientUnits="userSpaceOnUse">
<stop stop-color="#0129FF" stop-opacity="0"/>
<stop offset="0.311618" stop-color="#0129FF"/>
<stop offset="0.724213" stop-color="#0129FF"/>
<stop offset="1" stop-color="#0129FF" stop-opacity="0"/>
</linearGradient>
<linearGradient id="paint31_linear_16389_35435" x1="599.571" y1="402.85" x2="351.033" y2="32.8052" gradientUnits="userSpaceOnUse">
<stop stop-color="#0129FF" stop-opacity="0"/>
<stop offset="0.311618" stop-color="#0129FF"/>
<stop offset="0.724213" stop-color="#0129FF"/>
<stop offset="1" stop-color="#0129FF" stop-opacity="0"/>
</linearGradient>
<linearGradient id="paint32_linear_16389_35435" x1="599.571" y1="402.85" x2="351.033" y2="32.8052" gradientUnits="userSpaceOnUse">
<stop stop-color="#0129FF" stop-opacity="0"/>
<stop offset="0.311618" stop-color="#0129FF"/>
<stop offset="0.724213" stop-color="#0129FF"/>
<stop offset="1" stop-color="#0129FF" stop-opacity="0"/>
</linearGradient>
<linearGradient id="paint33_linear_16389_35435" x1="599.571" y1="402.85" x2="351.033" y2="32.8052" gradientUnits="userSpaceOnUse">
<stop stop-color="#0129FF" stop-opacity="0"/>
<stop offset="0.311618" stop-color="#0129FF"/>
<stop offset="0.724213" stop-color="#0129FF"/>
<stop offset="1" stop-color="#0129FF" stop-opacity="0"/>
</linearGradient>
<linearGradient id="paint34_linear_16389_35435" x1="599.571" y1="402.85" x2="351.033" y2="32.8052" gradientUnits="userSpaceOnUse">
<stop stop-color="#0129FF" stop-opacity="0"/>
<stop offset="0.311618" stop-color="#0129FF"/>
<stop offset="0.724213" stop-color="#0129FF"/>
<stop offset="1" stop-color="#0129FF" stop-opacity="0"/>
</linearGradient>
<linearGradient id="paint35_linear_16389_35435" x1="599.571" y1="402.85" x2="351.033" y2="32.8052" gradientUnits="userSpaceOnUse">
<stop stop-color="#0129FF" stop-opacity="0"/>
<stop offset="0.311618" stop-color="#0129FF"/>
<stop offset="0.724213" stop-color="#0129FF"/>
<stop offset="1" stop-color="#0129FF" stop-opacity="0"/>
</linearGradient>
<linearGradient id="paint36_linear_16389_35435" x1="400.863" y1="266.234" x2="419.383" y2="266.234" gradientUnits="userSpaceOnUse">
<stop stop-color="#ADBAFF"/>
<stop offset="1" stop-color="#92A2FA"/>
</linearGradient>
<linearGradient id="paint37_linear_16389_35435" x1="400.863" y1="225.053" x2="419.383" y2="225.053" gradientUnits="userSpaceOnUse">
<stop stop-color="#AEBBFF"/>
<stop offset="1" stop-color="#93A3FB"/>
</linearGradient>
<linearGradient id="paint38_linear_16389_35435" x1="400.863" y1="186.234" x2="419.383" y2="186.234" gradientUnits="userSpaceOnUse">
<stop stop-color="#ADBAFF"/>
<stop offset="1" stop-color="#92A2FA"/>
</linearGradient>
<clipPath id="clip0_16389_35435">
<rect width="481.698" height="481.698" fill="white" transform="matrix(0.83205 0.5547 -0.830139 0.557556 399.875 0)"/>
</clipPath>
</defs>
</svg>
